<?xml version="1.0" encoding="UTF-8" standalone="no"?>
<svg
   width="136.62926"
   height="50.676357"
   version="1.1"
   id="svg4"
   sodipodi:docname="main-privet.svg"
   inkscape:version="1.4.2 (ebf0e940, 2025-05-08)"
   xmlns:inkscape="http://www.inkscape.org/namespaces/inkscape"
   xmlns:sodipodi="http://sodipodi.sourceforge.net/DTD/sodipodi-0.dtd"
   xmlns="http://www.w3.org/2000/svg"
   xmlns:svg="http://www.w3.org/2000/svg">
  <defs
     id="defs4" />
  <sodipodi:namedview
     id="namedview4"
     pagecolor="#ffffff"
     bordercolor="#000000"
     borderopacity="0.25"
     inkscape:showpageshadow="2"
     inkscape:pageopacity="0.0"
     inkscape:pagecheckerboard="0"
     inkscape:deskcolor="#d1d1d1"
     inkscape:zoom="1.5772483"
     inkscape:cx="150.5787"
     inkscape:cy="92.566275"
     inkscape:window-width="1440"
     inkscape:window-height="795"
     inkscape:window-x="0"
     inkscape:window-y="25"
     inkscape:window-maximized="0"
     inkscape:current-layer="svg4" />
  <path
     fill="#ff99cc"
     d="m 31.446052,31.23038 v 19.29576 h 2.29016 v -4.58031 l -0.11587,-2.56951 h 0.0886 q 0.92014,0.83841 2.01752,1.30185 1.10417,0.45664 2.03114,0.45664 1.64265,0 3.03991,-0.86563 1.39727,-0.86564 2.26289,-2.50827 0.86562,-1.64944 0.86562,-3.93959 0,-2.11968 -0.64751,-3.66704 -0.6407,-1.55399 -1.88119,-2.40601 -1.24051,-0.85203 -3.08081,-0.85203 -1.26096,0 -2.50145,0.58628 -1.2405,0.58611 -2.19473,1.47896 h -0.0818 l -0.19766,-1.7311 z m 8.06326,11.34172 q -0.94741,0.64055 -2.14702,0.64055 -0.66797,0 -1.66309,-0.36119 -0.98831,-0.368 -1.96299,-1.23363 v -6.75461 q 1.0292,-1.06332 2.04478,-1.54718 1.02238,-0.49083 1.94935,-0.49083 1.36319,0 2.20155,0.6271 0.83836,0.62711 1.22688,1.7585 0.39532,1.13138 0.39532,2.61051 0,1.67666 -0.54528,2.88987 -0.54527,1.21339 -1.4995,1.86091 z m 8.88532,-11.34172 v 13.57046 h 2.11968 l 5.13919,-7.76332 q 0.38859,-0.6135 0.89984,-1.45174 0.51788,-0.83842 0.88605,-1.45191 h 0.10905 q -0.0546,1.31546 -0.14325,2.63093 -0.0817,1.30866 -0.0817,2.39921 v 5.63683 h 2.23554 V 31.23038 h -2.11968 l -5.1392,7.73593 q -0.36136,0.6135 -0.87924,1.4383 -0.51806,0.82464 -0.90664,1.46536 h -0.10906 q 0.0546,-1.31547 0.13645,-2.61052 0.0817,-1.30185 0.0817,-2.3856 v -5.64347 z m 16.8599,0 v 13.57046 h 6.50247 q 1.64944,0 2.91709,-0.40219 1.27464,-0.40883 1.99719,-1.27447 0.72919,-0.86563 0.72919,-2.20168 0,-0.9815 -0.40883,-1.63583 -0.40219,-0.65433 -1.07694,-1.04274 -0.66794,-0.39539 -1.47233,-0.59308 v -0.0817 q 1.08375,-0.33397 1.72447,-1.05652 0.64752,-0.72936 0.64752,-1.84713 0,-1.22683 -0.67474,-1.9766 -0.66794,-0.75658 -1.85394,-1.10416 -1.18599,-0.35439 -2.74679,-0.35439 z m 5.88897,5.64347 h -3.62603 v -3.79651 h 3.79651 q 1.73109,0 2.49448,0.43622 0.77036,0.42942 0.77036,1.37689 0,0.94746 -0.79758,1.46552 -0.79061,0.51788 -2.63774,0.51788 z m 0.36119,6.08667 h -3.98722 v -4.30079 h 3.85095 q 1.84032,0 2.78779,0.54528 0.9541,0.54527 0.9541,1.57441 0,1.11777 -0.87924,1.64943 -0.87925,0.53167 -2.72638,0.53167 z"
     id="path1"
     style="stroke-width:1.74488" />
  <path
     fill="#ff99cc"
     d="m 86.142662,27.80189 1.19961,1.13827 4.38261,-4.26679 -1.62204,-1.56765 z m -1.52677,16.49451 q 1.66305,0.83841 3.70107,0.83841 1.64263,0 2.93768,-0.47025 1.30185,-0.47722 2.31057,-1.14516 l -0.83824,-1.51316 q -0.92025,0.58628 -1.91536,0.94066 -0.9883,0.34759 -2.21512,0.34759 -1.51316,0 -2.71277,-0.59972 -1.1996,-0.59989 -1.90174,-1.77227 -0.55871,-0.94207 -0.66829,-2.26277 h 10.69454 q 0.0546,-0.27952 0.0818,-0.64072 0.034,-0.36816 0.034,-0.75658 0,-1.92896 -0.74279,-3.34667 -0.73617,-1.42452 -2.11986,-2.22194 -1.38369,-0.79758 -3.3397,-0.79758 -1.8131,0 -3.39449,0.85203 -1.5744,0.85202 -2.54909,2.44701 -0.97469,1.58802 -0.97469,3.79651 0,2.25596 0.97469,3.86456 0.97469,1.6018 2.63773,2.44005 z m -1.25195,-7.42255 q 0.145,-0.99266 0.5636,-1.75849 0.64752,-1.17238 1.71766,-1.78571 1.07694,-0.6203 2.33779,-0.6203 1.86754,0 2.9717,1.20641 0.95149,1.03366 1.08305,2.95809 z"
     id="path2"
     style="stroke-width:1.74488" />
  <path
     fill="#ff99cc"
     d="m 103.0844,33.10473 v 11.69611 h 2.29016 V 33.10473 h 5.3847 V 31.23038 H 97.693073 v 1.87435 z m 16.83268,-4.38268 0.27953,9.60371 h 1.5608 l 0.27953,-9.60371 0.0612,-2.62414 h -2.23554 z m -0.3748,15.82665 q 0.59972,0.58611 1.43813,0.58611 0.83842,0 1.43813,-0.58611 0.59989,-0.58627 0.59989,-1.58818 0,-0.9815 -0.59989,-1.554 -0.59971,-0.57249 -1.43813,-0.57249 -0.83841,0 -1.43813,0.57249 -0.59989,0.5725 -0.59989,1.554 0,1.00191 0.59989,1.58818 z"
     id="path3"
     style="stroke-width:1.74488" />
  <path
     fill="#ff99cc"
     d="m 24.480182,0.887 q -6.373,34.334 -11.936,44.983 -1.634,3.127 -3.0879995,4.153 -2.12,1.497 -4.3220002,-0.436 -4.533,-3.982 3.8890002,-15.507 1.2419995,-1.699 3.7049995,-5.612 3.515,-5.585 5.364,-7.742 3.231,-3.768 6.229,-3.961 1.412,-0.092 1.935,0.796 0.285,0.483 0.353,1.818 0.012,0.221 0.019,0.34 0.327,5.578 -1.179,14.356 -1.645,9.59 -4.167,14.066 -0.047,0.084 -0.142,0.253 -1.633,2.914 -4.236,2.094 -5.102,-1.605 -10.3069997,-10.03 -4.76,-7.704 -5.957,-14.566 -0.097,-0.558 -0.293,-1.539 -0.574,-2.871 -0.199,-4.058 0.546,-1.731 3.343,-3.424 Q 19.656182,7.0870002 79.419182,3.947 109.25018,2.38 135.89018,2.753 v 0 q 0.073,10e-4 0.146,0.016 0.072,0.015 0.14,0.045 0.068,0.029 0.128,0.071 0.061,0.042 0.113,0.095 0.051,0.053 0.091,0.115 0.041,0.062 0.068,0.13 0.027,0.069 0.041,0.141 0.013,0.073 0.012,0.147 -0.001,0.074 -0.016,0.146 -0.016,0.072 -0.045,0.14 -0.029,0.068 -0.071,0.129 -0.042,0.061 -0.095,0.112 -0.053,0.052 -0.115,0.092 -0.062,0.04 -0.131,0.067 -0.068,0.028 -0.141,0.041 -0.073,0.013 -0.146,0.012 v 0 q -26.591,-0.372 -56.370998,1.193 -59.387,3.1200002 -75.2309997,12.71 -2.312,1.4 -2.689,2.592 -0.258,0.819 0.24,3.312 0.199,0.998 0.3,1.575 1.147,6.577 5.7550002,14.035 4.9119995,7.95 9.4809995,9.389 1.441,0.453 2.478,-1.397 0.101,-0.18 0.144,-0.256 2.394,-4.25 3.995,-13.583 1.476,-8.609 1.159,-14.015 -0.007,-0.12 -0.019,-0.351 -0.05,-0.968 -0.147,-1.134 -0.055,-0.092 -0.547,-0.061 -3.641,0.236 -10.42,11.006 -2.49,3.958 -3.762,5.699 -7.6139997,10.417 -4.1109997,13.493 1.3130002,1.154 2.4680002,0.339 1.157,-0.817 2.6219995,-3.622 5.46,-10.45 11.791,-44.562 0.013,-0.073 0.041,-0.142 0.027,-0.068 0.067,-0.13 0.04,-0.062 0.092,-0.115 0.052,-0.053 0.112,-0.095 0.061,-0.042 0.129,-0.071 0.068,-0.029 0.14,-0.044 0.073,-0.016 0.146,-0.017 0.074,0 0.147,0.013 0.073,0.013 0.141,0.041 0.069,0.027 0.131,0.067 0.062,0.041 0.115,0.092 0.052,0.052 0.094,0.113 0.042,0.061 0.071,0.129 0.029,0.067 0.045,0.14 0.015,0.072 0.016,0.146 0.001,0.074 -0.012,0.146 z"
     id="path4" />
</svg>
