<?xml version="1.0" encoding="utf-8" ?>
<svg xmlns="http://www.w3.org/2000/svg" xmlns:xlink="http://www.w3.org/1999/xlink" width="626" height="229">
	<path fill="#F9C" transform="translate(827.505 -531.547)" d="M-716.529 643.551Q-706.983 646.571 -696.133 646.53Q-687.311 646.496 -668.114 644.505Q-639.613 641.547 -623.706 642.271Q-612.465 642.781 -597.349 645.338Q-580.245 648.231 -566.674 648.33Q-551.081 648.444 -524.464 645.091Q-497.131 641.648 -480.024 641.55Q-462.918 641.452 -436.142 644.987Q-412.164 648.152 -398.72 647.97Q-385.789 647.796 -370.489 645.063Q-360.96 643.361 -354.576 642.625Q-337.429 640.646 -312.748 643.216Q-312.675 643.224 -312.604 643.246Q-312.534 643.268 -312.469 643.303Q-312.404 643.338 -312.347 643.385Q-312.29 643.432 -312.244 643.49Q-312.197 643.547 -312.163 643.612Q-312.128 643.678 -312.107 643.749Q-312.086 643.819 -312.079 643.893Q-312.072 643.967 -312.08 644.04Q-312.088 644.114 -312.109 644.184Q-312.131 644.255 -312.166 644.32Q-312.202 644.385 -312.249 644.441Q-312.296 644.498 -312.353 644.545Q-312.411 644.591 -312.476 644.626Q-312.541 644.66 -312.612 644.681Q-312.683 644.702 -312.757 644.709Q-312.83 644.716 -312.904 644.708Q-337.42 642.155 -354.404 644.115Q-360.741 644.847 -370.225 646.54Q-385.646 649.294 -398.7 649.47Q-412.252 649.652 -436.339 646.474Q-463.011 642.953 -480.016 643.05Q-497.033 643.146 -524.276 646.579Q-550.992 649.945 -566.685 649.83Q-580.377 649.729 -597.599 646.817Q-612.625 644.276 -623.774 643.769Q-639.568 643.051 -667.959 645.997Q-687.231 647.996 -696.127 648.03Q-707.213 648.073 -716.981 644.981Q-717.052 644.959 -717.116 644.923Q-717.181 644.888 -717.238 644.84Q-717.294 644.793 -717.34 644.735Q-717.386 644.677 -717.42 644.612Q-717.454 644.546 -717.475 644.475Q-717.496 644.404 -717.502 644.331Q-717.508 644.257 -717.5 644.184Q-717.492 644.11 -717.47 644.04Q-717.448 643.97 -717.412 643.905Q-717.376 643.84 -717.329 643.784Q-717.281 643.727 -717.224 643.681Q-717.166 643.635 -717.101 643.601Q-717.035 643.567 -716.964 643.546Q-716.893 643.525 -716.819 643.519Q-716.746 643.513 -716.672 643.521Q-716.599 643.529 -716.529 643.551Z"/>
</svg>
