<?xml version="1.0" encoding="UTF-8" standalone="no"?>
<svg
   width="405.42883"
   height="8.2864428"
   version="1.1"
   id="svg1"
   sodipodi:docname="underline.svg"
   inkscape:version="1.4.2 (ebf0e940, 2025-05-08)"
   xmlns:inkscape="http://www.inkscape.org/namespaces/inkscape"
   xmlns:sodipodi="http://sodipodi.sourceforge.net/DTD/sodipodi-0.dtd"
   xmlns="http://www.w3.org/2000/svg"
   xmlns:svg="http://www.w3.org/2000/svg">
  <defs
     id="defs1" />
  <sodipodi:namedview
     id="namedview1"
     pagecolor="#ffffff"
     bordercolor="#000000"
     borderopacity="0.25"
     inkscape:showpageshadow="2"
     inkscape:pageopacity="0.0"
     inkscape:pagecheckerboard="0"
     inkscape:deskcolor="#d1d1d1"
     inkscape:zoom="1.2680413"
     inkscape:cx="214.89836"
     inkscape:cy="67.821134"
     inkscape:window-width="1440"
     inkscape:window-height="795"
     inkscape:window-x="0"
     inkscape:window-y="25"
     inkscape:window-maximized="0"
     inkscape:current-layer="svg1" />
  <path
     fill="#ff99cc"
     d="m 0.97557143,2.0036435 q 9.54599957,3.02 20.39599957,2.979 8.822,-0.034 28.019,-2.025 28.501,-2.95799995472 44.408,-2.23399995 11.240999,0.50999995 26.356999,3.06699995 17.104,2.893 30.675,2.992 15.593,0.114 42.21,-3.239 27.333,-3.44299995 44.44,-3.54099995 17.106,-0.098 43.882,3.43699995 23.978,3.165 37.422,2.983 12.931,-0.174 28.231,-2.907 9.529,-1.702 15.913,-2.438 17.147,-1.97899995 41.828,0.591 0.073,0.008 0.144,0.03 0.07,0.022 0.135,0.057 0.065,0.035 0.122,0.082 0.057,0.047 0.103,0.105 0.047,0.057 0.081,0.122 0.035,0.066 0.056,0.137 0.021,0.07 0.028,0.144 0.007,0.074 -10e-4,0.147 -0.008,0.074 -0.029,0.144 -0.022,0.071 -0.057,0.136 -0.036,0.065 -0.083,0.121 -0.047,0.057 -0.104,0.104 -0.058,0.046 -0.123,0.081 -0.065,0.034 -0.136,0.055 -0.071,0.021 -0.145,0.028 -0.073,0.007 -0.147,-10e-4 -24.516,-2.55299995 -41.5,-0.593 -6.337,0.732 -15.821,2.425 -15.421,2.754 -28.475,2.93 -13.552,0.182 -37.639,-2.996 -26.672,-3.521 -43.677,-3.424 -17.017,0.096 -44.26,3.529 -26.716,3.366 -42.409,3.251 -13.692,-0.101 -30.914,-3.013 -15.026,-2.541 -26.174999,-3.048 -15.794,-0.718 -44.185,2.228 -19.272,1.999 -28.168,2.033 -11.086,0.043 -20.85399957,-3.049 -0.071,-0.022 -0.135,-0.058 -0.065,-0.035 -0.122,-0.083 -0.056,-0.047 -0.102,-0.105 -0.046,-0.058 -0.08,-0.123 -0.034,-0.066 -0.055,-0.137 -0.021,-0.071 -0.027,-0.144 -0.006,-0.074 0.002,-0.147 0.008,-0.074 0.03,-0.144 0.022,-0.07 0.058,-0.135 0.036,-0.065 0.083,-0.121 0.048,-0.057 0.105,-0.103 0.058,-0.046 0.123,-0.08 0.066,-0.034 0.137,-0.055 0.071,-0.021 0.145,-0.027 0.073,-0.006 0.147,0.002 0.073,0.008 0.143,0.03 z"
     id="path1" />
</svg>
